<?xml version="1.0" encoding="utf-8"?>
<svg xmlns="http://www.w3.org/2000/svg" version="1.1" width="1020.0" height="1020.0">
<circle stroke="darkblue" stroke-width="2" cx="760.7763979025211" cy="320.39078833790245" r="1"/>
<circle stroke="darkblue" stroke-width="2" cx="777.8830220995601" cy="274.88095611043326" r="1"/>
<circle stroke="darkblue" stroke-width="2" cx="819.0062114766985" cy="217.9063164473504" r="1"/>
<circle stroke="darkblue" stroke-width="2" cx="825.9937891055998" cy="198.4963770364962" r="1"/>
<circle stroke="darkblue" stroke-width="2" cx="825.9937891055998" cy="196.1671844935291" r="1"/>
<circle stroke="darkblue" stroke-width="2" cx="829.0993807156842" cy="167.44047956919184" r="1"/>
<circle stroke="darkblue" stroke-width="2" cx="808.1366478289804" cy="170.5460665208911" r="1"/>
<circle stroke="darkblue" stroke-width="2" cx="807.3602487618631" cy="147.25414109122016" r="1"/>
<circle stroke="darkblue" stroke-width="2" cx="798.0434785899947" cy="128.62060074748342" r="1"/>
<circle stroke="darkblue" stroke-width="2" cx="768.5403745985399" cy="144.9249485482531" r="1"/>
<circle stroke="darkblue" stroke-width="2" cx="766.987576464305" cy="113.86905108094872" r="1"/>
<circle stroke="darkblue" stroke-width="2" cx="815.1242254578817" cy="63.40320954440486" r="1"/>
<circle stroke="darkblue" stroke-width="2" cx="839.9689443634023" cy="75.04917225924032" r="1"/>
<circle stroke="darkblue" stroke-width="2" cx="837.6397518204352" cy="54.08643937253649" r="1"/>
<circle stroke="darkblue" stroke-width="2" cx="847.1376819299101" cy="10.0" r="1"/>
<circle stroke="darkblue" stroke-width="2" cx="905.1863355664809" cy="11.708076084304302" r="1"/>
<circle stroke="darkblue" stroke-width="2" cx="1010.0000000000001" cy="26.136128856931386" r="1"/>
<circle stroke="darkblue" stroke-width="2" cx="979.7204969414279" cy="55.63923750677142" r="1"/>
<circle stroke="darkblue" stroke-width="2" cx="969.627327702442" cy="62.6268151356727" r="1"/>
<circle stroke="darkblue" stroke-width="2" cx="953.3229799016723" cy="70.39078717330614" r="1"/>
<circle stroke="darkblue" stroke-width="2" cx="912.9503122624996" cy="87.47153404119325" r="1"/>
<circle stroke="darkblue" stroke-width="2" cx="859.2494831533389" cy="230.32867822930336" r="1"/>
<circle stroke="darkblue" stroke-width="2" cx="829.0993807156842" cy="243.52743441998842" r="1"/>
<circle stroke="darkblue" stroke-width="2" cx="829.8757751244165" cy="270.7013458684761" r="1"/>
<circle stroke="darkblue" stroke-width="2" cx="804.2158388288575" cy="279.61697784220945" r="1"/>
<circle stroke="darkblue" stroke-width="2" cx="795.546067103189" cy="297.3059001749908" r="1"/>
<circle stroke="darkblue" stroke-width="2" cx="810.4658403719475" cy="307.9684265559496" r="1"/>
<circle stroke="darkblue" stroke-width="2" cx="792.608694436943" cy="322.71998088086957" r="1"/>
<circle stroke="darkblue" stroke-width="2" cx="771.6459615502391" cy="340.5771221574889" r="1"/>
<circle stroke="darkblue" stroke-width="2" cx="796.490685114145" cy="363.0926531784276" r="1"/>
<circle stroke="darkblue" stroke-width="2" cx="795.7142860470276" cy="384.0553860651314" r="1"/>
<circle stroke="darkblue" stroke-width="2" cx="776.3043466361734" cy="375.51501030199523" r="1"/>
<circle stroke="darkblue" stroke-width="2" cx="761.5527969696385" cy="384.0553860651314" r="1"/>
<circle stroke="darkblue" stroke-width="2" cx="738.2608715399676" cy="385.60817954098104" r="1"/>
<circle stroke="darkblue" stroke-width="2" cx="740.5900640829348" cy="387.93737208394816" r="1"/>
<circle stroke="darkblue" stroke-width="2" cx="746.0248435776011" cy="405.0181189518352" r="1"/>
<circle stroke="darkblue" stroke-width="2" cx="751.4596277306528" cy="416.6640816666707" r="1"/>
<circle stroke="darkblue" stroke-width="2" cx="733.2789849017403" cy="420.94720588362236" r="1"/>
<circle stroke="darkblue" stroke-width="2" cx="727.7277457799255" cy="427.52070432061987" r="1"/>
<circle stroke="darkblue" stroke-width="2" cx="731.5450314882842" cy="431.20859406644615" r="1"/>
<circle stroke="darkblue" stroke-width="2" cx="724.2857162821651" cy="455.4839558299938" r="1"/>
<circle stroke="darkblue" stroke-width="2" cx="697.8881992424097" cy="446.16718565812545" r="1"/>
<circle stroke="darkblue" stroke-width="2" cx="662.1739120307858" cy="448.4963782010925" r="1"/>
<circle stroke="darkblue" stroke-width="2" cx="648.1987567729833" cy="458.5895474400783" r="1"/>
<circle stroke="darkblue" stroke-width="2" cx="623.3540378674627" cy="474.893895240848" r="1"/>
<circle stroke="darkblue" stroke-width="2" cx="594.6273282847401" cy="457.03674930584344" r="1"/>
<circle stroke="darkblue" stroke-width="2" cx="568.22981590337" cy="464.8007260018622" r="1"/>
<circle stroke="darkblue" stroke-width="2" cx="553.4782615784499" cy="470.2355101549138" r="1"/>
<circle stroke="darkblue" stroke-width="2" cx="528.6335426729294" cy="473.3410971066131" r="1"/>
<circle stroke="darkblue" stroke-width="2" cx="500.68323215732426" cy="479.5522803267822" r="1"/>
<circle stroke="darkblue" stroke-width="2" cx="501.45962656605644" cy="488.86905049865055" r="1"/>
<circle stroke="darkblue" stroke-width="2" cx="498.35403961435713" cy="491.1982430416176" r="1"/>
<circle stroke="darkblue" stroke-width="2" cx="475.83850859341845" cy="492.7510365174673" r="1"/>
<circle stroke="darkblue" stroke-width="2" cx="475.0621141846862" cy="502.8442057564531" r="1"/>
<circle stroke="darkblue" stroke-width="2" cx="427.7018642582269" cy="528.4653237290911" r="1"/>
<circle stroke="darkblue" stroke-width="2" cx="417.6086950192411" cy="536.2292957667246" r="1"/>
<circle stroke="darkblue" stroke-width="2" cx="356.2732944933646" cy="587.4715317120006" r="1"/>
<circle stroke="darkblue" stroke-width="2" cx="339.19254762547746" cy="616.1982412947232" r="1"/>
<circle stroke="darkblue" stroke-width="2" cx="344.6273317785291" cy="627.0678049424412" r="1"/>
<circle stroke="darkblue" stroke-width="2" cx="301.925466938004" cy="755.1733948056312" r="1"/>
<circle stroke="darkblue" stroke-width="2" cx="273.97515642239887" cy="755.1733948056312" r="1"/>
<circle stroke="darkblue" stroke-width="2" cx="218.07453539118865" cy="835.1423403336299" r="1"/>
<circle stroke="darkblue" stroke-width="2" cx="210.24585838471114" cy="839.9560033696334" r="1"/>
<circle stroke="darkblue" stroke-width="2" cx="208.02018913350915" cy="847.9658403137175" r="1"/>
<circle stroke="darkblue" stroke-width="2" cx="194.07091120485907" cy="855.2898558302952" r="1"/>
<circle stroke="darkblue" stroke-width="2" cx="193.5791953671132" cy="855.3027968240639" r="1"/>
<circle stroke="darkblue" stroke-width="2" cx="193.8768149318687" cy="856.752071666534" r="1"/>
<circle stroke="darkblue" stroke-width="2" cx="10.0" cy="942.2851973101161" r="1"/>
<circle stroke="darkblue" stroke-width="2" cx="292.6086967661356" cy="596.0119074751368" r="1"/>
<circle stroke="darkblue" stroke-width="2" cx="322.8881998247078" cy="573.4963764541981" r="1"/>
<circle stroke="darkblue" stroke-width="2" cx="336.86335508251034" cy="555.6392351775788" r="1"/>
<circle stroke="darkblue" stroke-width="2" cx="281.7391331184176" cy="538.5584883096917" r="1"/>
<circle stroke="darkblue" stroke-width="2" cx="307.36025109105566" cy="512.1609759283215" r="1"/>
<circle stroke="darkblue" stroke-width="2" cx="309.5600430131058" cy="512.1609759283215" r="1"/>
<circle stroke="darkblue" stroke-width="2" cx="340.7453411013271" cy="500.515013213486" r="1"/>
<circle stroke="darkblue" stroke-width="2" cx="345.40372618726127" cy="500.515013213486" r="1"/>
<circle stroke="darkblue" stroke-width="2" cx="341.5217401684445" cy="476.4466887166976" r="1"/>
<circle stroke="darkblue" stroke-width="2" cx="358.60248703633164" cy="491.1982430416176" r="1"/>
<circle stroke="darkblue" stroke-width="2" cx="380.34161433176763" cy="509.83178338535436" r="1"/>
<circle stroke="darkblue" stroke-width="2" cx="417.6086950192411" cy="505.17339829942017" r="1"/>
<circle stroke="darkblue" stroke-width="2" cx="418.38509408635855" cy="484.98705982144855" r="1"/>
<circle stroke="darkblue" stroke-width="2" cx="419.16149315347604" cy="485.763458888566" r="1"/>
<circle stroke="darkblue" stroke-width="2" cx="446.20600398104614" cy="495.9860240900838" r="1"/>
<circle stroke="darkblue" stroke-width="2" cx="460.3105598597662" cy="460.91873998304544" r="1"/>
<circle stroke="darkblue" stroke-width="2" cx="453.32298223086497" cy="425.9808518385391" r="1"/>
<circle stroke="darkblue" stroke-width="2" cx="481.2732927464701" cy="425.2044527714216" r="1"/>
<circle stroke="darkblue" stroke-width="2" cx="582.9813655699047" cy="427.5336453143887" r="1"/>
<circle stroke="darkblue" stroke-width="2" cx="617.1428593056788" cy="429.08643879023833" r="1"/>
<circle stroke="darkblue" stroke-width="2" cx="624.1304369345801" cy="423.65165929557196" r="1"/>
<circle stroke="darkblue" stroke-width="2" cx="606.2732909995756" cy="402.68892640886816" r="1"/>
<circle stroke="darkblue" stroke-width="2" cx="637.3291931252652" cy="405.0181189518352" r="1"/>
<circle stroke="darkblue" stroke-width="2" cx="646.6459632971336" cy="395.7013487799669" r="1"/>
<circle stroke="darkblue" stroke-width="2" cx="641.9875782111994" cy="383.278986998014" r="1"/>
<circle stroke="darkblue" stroke-width="2" cx="625.6832304104298" cy="375.51501030199523" r="1"/>
<circle stroke="darkblue" stroke-width="2" cx="617.9192537144111" cy="362.3162541113101" r="1"/>
<circle stroke="darkblue" stroke-width="2" cx="678.4782598315554" cy="365.4218457213947" r="1"/>
<circle stroke="darkblue" stroke-width="2" cx="694.0062132235929" cy="384.8317804738636" r="1"/>
<circle stroke="darkblue" stroke-width="2" cx="700.2173917853768" cy="374.73861589326305" r="1"/>
<circle stroke="darkblue" stroke-width="2" cx="689.3478281376587" cy="363.86904758715974" r="1"/>
<circle stroke="darkblue" stroke-width="2" cx="712.6397535673296" cy="322.71998088086957" r="1"/>
<polygon stroke="black" stroke-width="1" fill="none" points="760.7763979025211,320.39078833790245 777.8830220995601,274.88095611043326 819.0062114766985,217.9063164473504 825.9937891055998,198.4963770364962 825.9937891055998,196.1671844935291 829.0993807156842,167.44047956919184 808.1366478289804,170.5460665208911 807.3602487618631,147.25414109122016 798.0434785899947,128.62060074748342 768.5403745985399,144.9249485482531 766.987576464305,113.86905108094872 815.1242254578817,63.40320954440486 839.9689443634023,75.04917225924032 837.6397518204352,54.08643937253649 847.1376819299101,10.0 905.1863355664809,11.708076084304302 1010.0000000000001,26.136128856931386 979.7204969414279,55.63923750677142 969.627327702442,62.6268151356727 953.3229799016723,70.39078717330614 912.9503122624996,87.47153404119325 859.2494831533389,230.32867822930336 829.0993807156842,243.52743441998842 829.8757751244165,270.7013458684761 804.2158388288575,279.61697784220945 795.546067103189,297.3059001749908 810.4658403719475,307.9684265559496 792.608694436943,322.71998088086957 771.6459615502391,340.5771221574889 796.490685114145,363.0926531784276 795.7142860470276,384.0553860651314 776.3043466361734,375.51501030199523 761.5527969696385,384.0553860651314 738.2608715399676,385.60817954098104 740.5900640829348,387.93737208394816 746.0248435776011,405.0181189518352 751.4596277306528,416.6640816666707 733.2789849017403,420.94720588362236 727.7277457799255,427.52070432061987 731.5450314882842,431.20859406644615 724.2857162821651,455.4839558299938 697.8881992424097,446.16718565812545 662.1739120307858,448.4963782010925 648.1987567729833,458.5895474400783 623.3540378674627,474.893895240848 594.6273282847401,457.03674930584344 568.22981590337,464.8007260018622 553.4782615784499,470.2355101549138 528.6335426729294,473.3410971066131 500.68323215732426,479.5522803267822 501.45962656605644,488.86905049865055 498.35403961435713,491.1982430416176 475.83850859341845,492.7510365174673 475.0621141846862,502.8442057564531 427.7018642582269,528.4653237290911 417.6086950192411,536.2292957667246 356.2732944933646,587.4715317120006 339.19254762547746,616.1982412947232 344.6273317785291,627.0678049424412 301.925466938004,755.1733948056312 273.97515642239887,755.1733948056312 218.07453539118865,835.1423403336299 210.24585838471114,839.9560033696334 208.02018913350915,847.9658403137175 194.07091120485907,855.2898558302952 193.5791953671132,855.3027968240639 193.8768149318687,856.752071666534 10.0,942.2851973101161 292.6086967661356,596.0119074751368 322.8881998247078,573.4963764541981 336.86335508251034,555.6392351775788 281.7391331184176,538.5584883096917 307.36025109105566,512.1609759283215 309.5600430131058,512.1609759283215 340.7453411013271,500.515013213486 345.40372618726127,500.515013213486 341.5217401684445,476.4466887166976 358.60248703633164,491.1982430416176 380.34161433176763,509.83178338535436 417.6086950192411,505.17339829942017 418.38509408635855,484.98705982144855 419.16149315347604,485.763458888566 446.20600398104614,495.9860240900838 460.3105598597662,460.91873998304544 453.32298223086497,425.9808518385391 481.2732927464701,425.2044527714216 582.9813655699047,427.5336453143887 617.1428593056788,429.08643879023833 624.1304369345801,423.65165929557196 606.2732909995756,402.68892640886816 637.3291931252652,405.0181189518352 646.6459632971336,395.7013487799669 641.9875782111994,383.278986998014 625.6832304104298,375.51501030199523 617.9192537144111,362.3162541113101 678.4782598315554,365.4218457213947 694.0062132235929,384.8317804738636 700.2173917853768,374.73861589326305 689.3478281376587,363.86904758715974 712.6397535673296,322.71998088086957 "/>
</svg>
